#!OML:ASF F:\VICON\USERDATA\INSTALL\Justin_Nancy\Justin_Nancy.ASF
:FULLY-SPECIFIED
:DEGREES
16
root 9.10207 17.6061 -27.0068 -1.64446 4.04806 0.265449
lowerback 7.16574 -2.11619 -1.96179
upperback 0.175354 -2.84703 3.48752
thorax -3.56203 -1.35681 5.01569
lowerneck -15.2048 -3.8156 -9.58495
upperneck 20.4623 -3.79869 3.88216
head 9.2192 -2.10796 2.44879
rclavicle -1.19271e-015 -1.82882e-014
rhumerus -40.6156 -22.8217 -68.313
rradius 24.0175
rwrist 12.6441
rhand -12.242 12.2413
rfingers 7.12502
rthumb 13.8238 -17.2793
lclavicle -1.19271e-015 -1.82882e-014
lhumerus -29.7181 10.7714 82.2133
lradius 30.3654
lwrist -4.54385
lhand -16.1458 28.3964
lfingers 7.12502
lthumb 10.0595 58.136
rfemur -17.1952 3.94754 23.6468
rtibia 21.8664
rfoot -0.0557821 0.081308
rtoes 10.2086
lfemur 0.0606129 -2.22488 -21.1895
ltibia 48.3309
lfoot 22.8634 -13.1812
ltoes -4.10599
17
root 9.08958 17.6256 -26.8276 -1.80937 4.15451 -0.0926705
lowerback 7.37556 -2.08684 -1.56123
upperback 0.135002 -2.77304 3.48589
thorax -3.74802 -1.32181 4.7923
lowerneck -15.6981 -3.85322 -9.55831
upperneck 20.9501 -3.87779 4.14754
head 9.48977 -2.11614 2.52522
rclavicle -3.04141e-014 1.11319e-014
rhumerus -40.68 -22.9196 -68.3358
rradius 23.9916
rwrist 12.5515
rhand -12.3143 12.319
rfingers 7.12502
rthumb 13.7541 -17.2064
lclavicle -3.04141e-014 1.11319e-014
lhumerus -29.9628 10.6687 82.2233
lradius 30.2546
lwrist -4.93365
lhand -14.6774 30.4362
lfingers 7.12502
lthumb 11.4759 60.1021
rfemur -16.2588 4.08544 24.2051
rtibia 21.7805
rfoot -0.317635 -0.303424
rtoes 7.9529
lfemur -1.17168 -2.12645 -20.5492
ltibia 50.3106
lfoot 24.4873 -14.2217
ltoes -2.88601
18
root 9.07769 17.6402 -26.6547 -2.04518 4.19724 -0.486314
lowerback 7.38033 -2.04641 -1.23687
upperback 0.282003 -2.68947 3.60695
thorax -3.61469 -1.28943 4.72248
lowerneck -16.085 -3.81162 -9.57907
upperneck 21.2682 -3.8223 4.3246
head 9.67247 -2.07261 2.59744
rclavicle -5.86415e-015 -9.54166e-015
rhumerus -40.3159 -23.0635 -68.3363
rradius 23.7459
rwrist 12.5778
rhand -12.6978 12.97
rfingers 7.12502
rthumb 13.3845 -16.58
lclavicle -5.86415e-015 -9.54166e-015
lhumerus -30.1081 10.369 82.5674
lradius 30.027
lwrist -3.90837
lhand -14.3005 31.2848
lfingers 7.12502
lthumb 11.8394 60.9301
rfemur -15.202 4.10498 24.8268
rtibia 21.536
rfoot -0.596618 -0.341359
rtoes 5.89747
lfemur -2.2496 -1.95975 -19.9052
ltibia 52.2178
lfoot 23.5708 -14.5279
ltoes -5.52381
19
root 9.07265 17.666 -26.4815 -2.11059 4.68802 -0.319585
lowerback 7.10077 -2.1069 -1.35838
upperback 0.449719 -2.78789 3.53667
thorax -3.27275 -1.34605 4.70647
lowerneck -15.7301 -4.13056 -9.53129
upperneck 20.5303 -4.26342 4.1674
head 9.37802 -2.28407 2.47244
rclavicle 3.18552e-014 -2.22639e-014
rhumerus -39.9049 -22.9232 -68.5974
rradius 23.7966
rwrist 12.096
rhand -12.8643 12.7722
rfingers 7.12502
rthumb 13.224 -16.7884
lclavicle 3.18552e-014 -2.22639e-014
lhumerus -30.0572 9.8302 82.9784
lradius 29.8205
lwrist -3.45673
lhand -14.2644 31.7414
lfingers 7.12502
lthumb 11.8742 61.3847
rfemur -14.3007 3.67241 24.7485
rtibia 21.3721
rfoot -1.28541 -0.42371
rtoes 5.42203
lfemur -3.44757 -2.16473 -19.9732
ltibia 53.9655
lfoot 20.497 -14.2416
ltoes -13.0943
20
root 9.04632 17.6749 -26.296 -2.40379 4.44033 -1.23961
lowerback 7.06379 -1.93848 -0.694186
upperback 0.598196 -2.50487 3.79453
thorax -3.1406 -1.21659 4.56804
lowerneck -15.7734 -4.25912 -9.40269
upperneck 20.3505 -4.46997 4.17924
head 9.33537 -2.3657 2.42608
rclavicle -6.01324e-015 1.59028e-015
rhumerus -39.8551 -22.6572 -68.8319
rradius 24.2315
rwrist 11.5413
rhand -12.6382 12.5466
rfingers 7.12502
rthumb 13.4419 -16.9997
lclavicle -6.01324e-015 1.59028e-015
lhumerus -29.9691 9.39731 83.3093
lradius 29.266
lwrist -3.86864
lhand -15.5915 31.3172
lfingers 7.12502
lthumb 10.5942 61.0302
rfemur -13.2379 4.42733 26.0228
rtibia 21.0953
rfoot -1.7392 -1.03032
rtoes 5.53476
lfemur -4.49161 -1.54383 -18.6129
ltibia 55.7125
lfoot 17.3703 -13.097
ltoes -18.1955
21
root 9.03958 17.6793 -26.134 -2.42358 4.29409 -1.46602
lowerback 7.18406 -1.85544 -0.551816
upperback 0.450969 -2.37223 3.92232
thorax -3.37216 -1.14618 4.6197
lowerneck -15.6318 -4.21187 -9.47143
upperneck 20.2621 -4.40709 4.21417
head 9.27645 -2.3385 2.45922
rclavicle 1.64494e-014 -1.82882e-014
rhumerus -39.6932 -23.0285 -68.3995
rradius 23.7354
rwrist 12.3367
rhand -13.0856 12.7056
rfingers 7.12502
rthumb 13.0107 -16.8687
lclavicle 1.64494e-014 -1.82882e-014
lhumerus -30.402 9.6728 83.3151
lradius 28.5003
lwrist -4.17654
lhand -14.6165 28.5728
lfingers 7.12502
lthumb 11.5346 58.2354
rfemur -12.501 4.59461 26.425
rtibia 20.832
rfoot -2.04004 -1.08255
rtoes 5.79146
lfemur -5.87422 -0.962151 -18.2217
ltibia 57.3147
lfoot 17.0017 -13.1557
ltoes -9.81675
